<?xml version="1.0" encoding="UTF-8"?>
<!DOCTYPE svg PUBLIC "-//W3C//DTD SVG 1.1//EN" "http://www.w3.org/Graphics/SVG/1.1/DTD/svg11.dtd">
<svg xmlns="http://www.w3.org/2000/svg" version="1.1" width="256px" height="256px" style="shape-rendering:geometricPrecision; text-rendering:geometricPrecision; image-rendering:optimizeQuality; fill-rule:evenodd; clip-rule:evenodd" xmlns:xlink="http://www.w3.org/1999/xlink">
<g><path style="opacity:0.815" fill="#3399ff" d="M 244.5,159.5 C 243.833,159.5 243.5,159.833 243.5,160.5C 242.352,159.105 241.352,159.272 240.5,161C 241.044,161.717 241.711,162.217 242.5,162.5C 242.672,163.492 242.338,164.158 241.5,164.5C 241.167,163.167 240.833,163.167 240.5,164.5C 239.833,164.5 239.5,164.833 239.5,165.5C 238.105,164.185 237.105,164.519 236.5,166.5C 235.833,166.5 235.5,166.833 235.5,167.5C 234.512,168.795 233.512,170.128 232.5,171.5C 231.833,171.5 231.5,171.833 231.5,172.5C 229.219,174.032 229.219,175.366 231.5,176.5C 231.672,177.492 231.338,178.158 230.5,178.5C 230.167,177.167 229.833,177.167 229.5,178.5C 228.833,178.5 228.5,178.833 228.5,179.5C 227.105,178.185 226.105,178.519 225.5,180.5C 224.833,180.5 224.5,180.833 224.5,181.5C 222.622,182.934 221.955,184.601 222.5,186.5C 196.683,188.177 170.683,189.177 144.5,189.5C 144.167,188.167 143.833,188.167 143.5,189.5C 142.833,190.167 142.167,190.833 141.5,191.5C 141.167,190.167 140.833,190.167 140.5,191.5C 139.833,192.167 139.167,192.833 138.5,193.5C 138.167,192.167 137.833,192.167 137.5,193.5C 136.508,193.328 135.842,193.662 135.5,194.5C 134.167,194.833 134.167,195.167 135.5,195.5C 135.158,196.338 134.492,196.672 133.5,196.5C 133.167,195.167 132.833,195.167 132.5,196.5C 131.167,196.833 131.167,197.167 132.5,197.5C 132.158,198.338 131.492,198.672 130.5,198.5C 130.167,197.167 129.833,197.167 129.5,198.5C 128.833,199.167 128.167,199.833 127.5,200.5C 127.167,199.167 126.833,199.167 126.5,200.5C 125.833,201.167 125.167,201.833 124.5,202.5C 124.167,201.167 123.833,201.167 123.5,202.5C 122.508,202.328 121.842,202.662 121.5,203.5C 120.167,203.833 120.167,204.167 121.5,204.5C 121.158,205.338 120.492,205.672 119.5,205.5C 119.167,204.167 118.833,204.167 118.5,205.5C 117.167,205.833 117.167,206.167 118.5,206.5C 118.158,207.338 117.492,207.672 116.5,207.5C 116.167,206.167 115.833,206.167 115.5,207.5C 114.167,207.833 114.167,208.167 115.5,208.5C 115.158,209.338 114.492,209.672 113.5,209.5C 113.167,208.167 112.833,208.167 112.5,209.5C 111.833,210.167 111.167,210.833 110.5,211.5C 110.167,210.167 109.833,210.167 109.5,211.5C 108.764,213.229 107.43,214.229 105.5,214.5C 105.167,213.167 104.833,213.167 104.5,214.5C 103.167,214.833 103.167,215.167 104.5,215.5C 102.721,215.374 100.721,215.708 98.5,216.5C 98.6665,206.161 98.4998,195.828 98,185.5C 97.6667,195.167 97.3333,204.833 97,214.5C 96.6667,214.167 96.3333,213.833 96,213.5C 95.4811,205.154 95.6478,196.821 96.5,188.5C 67.4262,188.825 38.4262,188.491 9.5,187.5C 38.3304,186.668 67.3304,186.168 96.5,186C 67.5019,185.5 38.5019,185.333 9.5,185.5C 9.5,147.5 9.5,109.5 9.5,71.5C 10.1667,71.5 10.5,71.1667 10.5,70.5C 11.4013,69.7095 12.0679,68.7095 12.5,67.5C 13.1667,67.5 13.5,67.1667 13.5,66.5C 14.4013,65.7095 15.0679,64.7095 15.5,63.5C 16.1667,63.5 16.5,63.1667 16.5,62.5C 17.2674,61.828 17.9341,60.9947 18.5,60C 16.9926,59.1627 16.4926,57.9961 17,56.5C 18.3333,56.5 19.6667,56.5 21,56.5C 21.5,56 22,55.5 22.5,55C 20.9926,54.1627 20.4926,52.9961 21,51.5C 22,51.8333 23,52.1667 24,52.5C 24.7172,51.9558 25.2172,51.2891 25.5,50.5C 26.1667,50.5 26.5,50.1667 26.5,49.5C 27.4013,48.7095 28.0679,47.7095 28.5,46.5C 29.1667,46.5 29.5,46.1667 29.5,45.5C 30.2674,44.828 30.9341,43.9947 31.5,43C 30.6433,42.3109 29.9767,41.4776 29.5,40.5C 30.5294,40.7036 31.5294,40.2036 32.5,39C 103.499,38.5 174.499,38.3333 245.5,38.5C 245.667,77.5014 245.5,116.501 245,155.5C 243.489,156.564 243.323,157.897 244.5,159.5 Z M 164.5,151.5 C 164.167,150.167 163.833,150.167 163.5,151.5C 162.508,151.328 161.842,151.662 161.5,152.5C 160.167,152.833 160.167,153.167 161.5,153.5C 161.5,153.833 161.5,154.167 161.5,154.5C 160.833,154.5 160.167,154.5 159.5,154.5C 159.167,153.167 158.833,153.167 158.5,154.5C 157.833,155.167 157.167,155.833 156.5,156.5C 156.167,155.167 155.833,155.167 155.5,156.5C 154.833,157.167 154.167,157.833 153.5,158.5C 153.167,157.167 152.833,157.167 152.5,158.5C 151.508,158.328 150.842,158.662 150.5,159.5C 149.833,159.5 149.5,159.833 149.5,160.5C 148.508,160.328 147.842,160.662 147.5,161.5C 146.833,161.5 146.5,161.833 146.5,162.5C 145.508,162.328 144.842,162.662 144.5,163.5C 143.833,164.167 143.167,164.833 142.5,165.5C 142.167,164.167 141.833,164.167 141.5,165.5C 140.833,166.167 140.167,166.833 139.5,167.5C 139.167,166.167 138.833,166.167 138.5,167.5C 137.508,167.328 136.842,167.662 136.5,168.5C 135.833,168.5 135.5,168.833 135.5,169.5C 134.508,169.328 133.842,169.662 133.5,170.5C 132.833,170.5 132.5,170.833 132.5,171.5C 131.508,171.328 130.842,171.662 130.5,172.5C 129.833,173.167 129.167,173.833 128.5,174.5C 127.701,167.246 127.201,159.912 127,152.5C 126.167,187.16 125.667,187.16 125.5,152.5C 96.8314,152.667 68.1647,152.5 39.5,152C 68.3363,151.832 97.0029,151.332 125.5,150.5C 96.9072,149.509 68.2405,149.175 39.5,149.5C 39.5,115.167 39.5,80.8333 39.5,46.5C 105.833,46.5 172.167,46.5 238.5,46.5C 238.5,80.8333 238.5,115.167 238.5,149.5C 214.498,149.333 190.498,149.5 166.5,150C 165.956,150.717 165.289,151.217 164.5,151.5 Z M 70.5,91.5 C 69.968,94.4596 69.3013,94.7929 68.5,92.5C 69.1667,92.1667 69.8333,91.8333 70.5,91.5 Z M 119.5,93.5 C 119.5,94.1667 119.833,94.5 120.5,94.5C 122.586,97.6785 122.92,101.012 121.5,104.5C 120.662,104.842 120.328,105.508 120.5,106.5C 119.778,106.918 119.278,107.584 119,108.5C 116.63,108.806 114.13,108.473 111.5,107.5C 111.167,106.5 110.5,105.833 109.5,105.5C 108.841,103.862 108.174,102.195 107.5,100.5C 108.174,98.8045 108.841,97.1379 109.5,95.5C 110.5,95.1667 111.167,94.5 111.5,93.5C 112.222,93.0825 112.722,92.4158 113,91.5C 114.947,91.8329 117.114,92.4995 119.5,93.5 Z M 210.5,93.5 C 210.833,94.5 211.5,95.1667 212.5,95.5C 214.016,99.3854 213.682,103.052 211.5,106.5C 210.778,106.918 210.278,107.584 210,108.5C 207.63,108.806 205.13,108.473 202.5,107.5C 202.167,106.5 201.5,105.833 200.5,105.5C 200.123,103.742 199.456,102.075 198.5,100.5C 199.174,98.8045 199.841,97.1379 200.5,95.5C 201.5,95.1667 202.167,94.5 202.5,93.5C 203.222,93.0825 203.722,92.4158 204,91.5C 205.667,92.8333 207.333,92.8333 209,91.5C 209.278,92.4158 209.778,93.0825 210.5,93.5 Z M 187.5,93.5 C 187.296,96.5176 186.963,99.5176 186.5,102.5C 185.379,99.4089 185.713,96.4089 187.5,93.5 Z"/></g>
<g><path style="opacity:0.015" fill="#3399ff" d="M 246.5,38.5 C 247.665,77.3312 247.831,116.331 247,155.5C 246.5,116.501 246.333,77.5014 246.5,38.5 Z"/></g>
<g><path style="opacity:0.008" fill="#3399ff" d="M 29.5,45.5 C 28.8333,45.5 28.5,45.8333 28.5,46.5C 26.9153,45.9976 26.4153,44.9976 27,43.5C 27.6667,44.8333 28.3333,44.8333 29,43.5C 29.4643,44.0944 29.631,44.7611 29.5,45.5 Z"/></g>
<g><path style="opacity:0.008" fill="#3399ff" d="M 26.5,49.5 C 25.8333,49.5 25.5,49.8333 25.5,50.5C 23.9153,49.9976 23.4153,48.9976 24,47.5C 24.6667,48.8333 25.3333,48.8333 26,47.5C 26.4643,48.0944 26.631,48.7611 26.5,49.5 Z"/></g>
<g><path style="opacity:0.008" fill="#3399ff" d="M 16.5,62.5 C 15.8333,62.5 15.5,62.8333 15.5,63.5C 13.9153,62.9976 13.4153,61.9976 14,60.5C 14.6667,61.8333 15.3333,61.8333 16,60.5C 16.4643,61.0944 16.631,61.7611 16.5,62.5 Z"/></g>
<g><path style="opacity:0.008" fill="#3399ff" d="M 13.5,66.5 C 12.8333,66.5 12.5,66.8333 12.5,67.5C 10.9153,66.9976 10.4153,65.9976 11,64.5C 11.6667,65.8333 12.3333,65.8333 13,64.5C 13.4643,65.0944 13.631,65.7611 13.5,66.5 Z"/></g>
<g><path style="opacity:0.015" fill="#3399ff" d="M 10.5,70.5 C 9.83333,70.5 9.5,70.8333 9.5,71.5C 8.66743,109.331 8.16743,147.331 8,185.5C 7.33333,146.5 7.33333,107.5 8,68.5C 8.66667,69.8333 9.33333,69.8333 10,68.5C 10.4643,69.0944 10.631,69.7611 10.5,70.5 Z"/></g>
<g><path style="opacity:0.705" fill="#3399ff" d="M 125.5,81.5 C 125.833,82.8333 126.167,82.8333 126.5,81.5C 127.492,81.3284 128.158,81.6618 128.5,82.5C 128.598,83.5486 128.598,84.7153 128.5,86C 129.333,86.8333 130.167,87.6667 131,88.5C 131.951,88.1164 132.784,87.7831 133.5,87.5C 134.558,88.6002 135.392,89.9336 136,91.5C 136.167,94.3333 136.333,97.1667 136.5,100C 136.714,104.133 136.048,107.966 134.5,111.5C 134.672,112.492 134.338,113.158 133.5,113.5C 131.522,113.738 129.855,115.071 128.5,117.5C 127.833,117.5 127.167,117.5 126.5,117.5C 126.5,117.833 126.5,118.167 126.5,118.5C 125.322,119.662 124.155,120.662 123,121.5C 118,121.5 113,121.5 108,121.5C 107.292,120.619 106.458,119.953 105.5,119.5C 105.167,118.167 104.833,118.167 104.5,119.5C 103.508,119.672 102.842,119.338 102.5,118.5C 102.783,117.784 103.116,116.951 103.5,116C 101.266,113.937 99.2659,111.771 97.5,109.5C 97.6716,108.508 97.3382,107.842 96.5,107.5C 96.7678,105.901 96.4345,104.568 95.5,103.5C 95.5,101.5 95.5,99.5 95.5,97.5C 96.4345,96.4324 96.7678,95.099 96.5,93.5C 97.3382,93.1583 97.6716,92.4916 97.5,91.5C 99.7813,89.9678 99.7813,88.6344 97.5,87.5C 97.3284,86.5084 97.6618,85.8417 98.5,85.5C 98.4346,85.9382 98.6012,86.2716 99,86.5C 99.8333,85.6667 100.667,84.8333 101.5,84C 101.272,83.6012 100.938,83.4346 100.5,83.5C 100.842,82.6618 101.508,82.3284 102.5,82.5C 102.833,83.8333 103.167,83.8333 103.5,82.5C 104.678,81.3381 105.845,80.3381 107,79.5C 107.333,79.8333 107.667,80.1667 108,80.5C 114.312,78.1019 120.145,78.4352 125.5,81.5 Z M 119.5,93.5 C 119.5,94.1667 119.833,94.5 120.5,94.5C 122.586,97.6785 122.92,101.012 121.5,104.5C 120.662,104.842 120.328,105.508 120.5,106.5C 119.778,106.918 119.278,107.584 119,108.5C 116.63,108.806 114.13,108.473 111.5,107.5C 111.167,106.5 110.5,105.833 109.5,105.5C 108.841,103.862 108.174,102.195 107.5,100.5C 108.174,98.8045 108.841,97.1379 109.5,95.5C 110.5,95.1667 111.167,94.5 111.5,93.5C 112.222,93.0825 112.722,92.4158 113,91.5C 114.947,91.8329 117.114,92.4995 119.5,93.5 Z"/></g>
<g><path style="opacity:0.734" fill="#3399ff" d="M 216.5,81.5 C 216.833,82.8333 217.167,82.8333 217.5,81.5C 218.492,81.3284 219.158,81.6618 219.5,82.5C 219.217,83.2161 218.884,84.0494 218.5,85C 220.402,86.7297 222.069,88.563 223.5,90.5C 223.328,91.4916 223.662,92.1583 224.5,92.5C 224.328,93.4916 224.662,94.1583 225.5,94.5C 225.5,98.5 225.5,102.5 225.5,106.5C 224.662,106.842 224.328,107.508 224.5,108.5C 223.662,108.842 223.328,109.508 223.5,110.5C 222.833,110.5 222.5,110.833 222.5,111.5C 221.44,113.457 220.44,115.457 219.5,117.5C 218.322,118.662 217.155,119.662 216,120.5C 214.984,119.366 214.317,119.699 214,121.5C 209,121.5 204,121.5 199,121.5C 197.698,120.915 196.531,120.249 195.5,119.5C 194.508,119.672 193.842,119.338 193.5,118.5C 193.783,117.784 194.116,116.951 194.5,116C 192.598,114.27 190.931,112.437 189.5,110.5C 189.5,109.833 189.167,109.5 188.5,109.5C 188.672,108.508 188.338,107.842 187.5,107.5C 187.784,105.585 187.451,103.919 186.5,102.5C 186.963,99.5176 187.296,96.5176 187.5,93.5C 188.338,93.1583 188.672,92.4916 188.5,91.5C 189.488,90.205 190.488,88.8717 191.5,87.5C 192.167,87.5 192.5,87.1667 192.5,86.5C 193.167,86.5 193.5,86.1667 193.5,85.5C 194.833,85.1667 194.833,84.8333 193.5,84.5C 193.833,83.8333 194.167,83.1667 194.5,82.5C 195.678,81.3381 196.845,80.3381 198,79.5C 198.333,79.8333 198.667,80.1667 199,80.5C 205.348,77.895 211.181,78.2283 216.5,81.5 Z M 210.5,93.5 C 210.833,94.5 211.5,95.1667 212.5,95.5C 214.016,99.3854 213.682,103.052 211.5,106.5C 210.778,106.918 210.278,107.584 210,108.5C 207.63,108.806 205.13,108.473 202.5,107.5C 202.167,106.5 201.5,105.833 200.5,105.5C 200.123,103.742 199.456,102.075 198.5,100.5C 199.174,98.8045 199.841,97.1379 200.5,95.5C 201.5,95.1667 202.167,94.5 202.5,93.5C 203.222,93.0825 203.722,92.4158 204,91.5C 205.667,92.8333 207.333,92.8333 209,91.5C 209.278,92.4158 209.778,93.0825 210.5,93.5 Z"/></g>
<g><path style="opacity:0.803" fill="#3399ff" d="M 63.5,81.5 C 63.5,81.8333 63.5,82.1667 63.5,82.5C 62.1667,83.1667 62.1667,83.8333 63.5,84.5C 63.5,85.1667 63.8333,85.5 64.5,85.5C 64.3284,86.4916 64.6618,87.1583 65.5,87.5C 65.8333,90.1667 66.1667,90.1667 66.5,87.5C 67.1667,87.5 67.5,87.1667 67.5,86.5C 68.2216,86.9175 68.7216,87.5842 69,88.5C 69.8518,87.4293 70.6851,86.4293 71.5,85.5C 71.5,86.1667 71.8333,86.5 72.5,86.5C 72.8333,89.1667 73.1667,89.1667 73.5,86.5C 74.3382,86.1583 74.6716,85.4916 74.5,84.5C 75.1667,84.5 75.5,84.1667 75.5,83.5C 76.8333,83.1667 76.8333,82.8333 75.5,82.5C 75.5,81.8333 75.5,81.1667 75.5,80.5C 79.2684,79.2134 82.9351,79.2134 86.5,80.5C 85.8843,81.2022 85.8843,82.2022 86.5,83.5C 85.6618,83.8417 85.3284,84.5084 85.5,85.5C 84.8333,85.5 84.5,85.8333 84.5,86.5C 83.6618,86.8417 83.3284,87.5084 83.5,88.5C 82.1667,89.1667 82.1667,89.8333 83.5,90.5C 83.5,91.1667 83.8333,91.5 84.5,91.5C 83.7161,93.0294 82.7161,94.6961 81.5,96.5C 81.5,95.8333 81.1667,95.5 80.5,95.5C 80.1667,92.8333 79.8333,92.8333 79.5,95.5C 78.1667,96.1667 78.1667,96.8333 79.5,97.5C 79.5,98.1667 79.8333,98.5 80.5,98.5C 79.7161,100.029 78.7161,101.696 77.5,103.5C 77.5,102.833 77.1667,102.5 76.5,102.5C 76.1667,99.8333 75.8333,99.8333 75.5,102.5C 74.6618,102.842 74.3284,103.508 74.5,104.5C 73.5128,109.305 73.1795,114.305 73.5,119.5C 70.5,119.5 67.5,119.5 64.5,119.5C 64.8214,113.974 64.4881,108.64 63.5,103.5C 63.6716,102.508 63.3382,101.842 62.5,101.5C 62.6716,100.508 62.3382,99.8417 61.5,99.5C 61.5,98.8333 61.1667,98.5 60.5,98.5C 60.6716,97.5084 60.3382,96.8417 59.5,96.5C 59.6716,95.5084 59.3382,94.8417 58.5,94.5C 58.6716,93.5084 58.3382,92.8417 57.5,92.5C 57.5,91.8333 57.1667,91.5 56.5,91.5C 56.6716,90.5084 56.3382,89.8417 55.5,89.5C 55.6716,88.5084 55.3382,87.8417 54.5,87.5C 54.6716,86.5084 54.3382,85.8417 53.5,85.5C 53.5,84.8333 53.1667,84.5 52.5,84.5C 52.5,82.8333 52.5,81.1667 52.5,79.5C 56.5025,79.0357 60.1691,79.7024 63.5,81.5 Z M 70.5,91.5 C 69.968,94.4596 69.3013,94.7929 68.5,92.5C 69.1667,92.1667 69.8333,91.8333 70.5,91.5 Z"/></g>
<g><path style="opacity:0.006" fill="#3399ff" d="M 74.5,80.5 C 74.3284,81.4916 74.6618,82.1583 75.5,82.5C 75.5,82.8333 75.5,83.1667 75.5,83.5C 74.8333,83.5 74.5,83.8333 74.5,84.5C 74.1667,84.5 73.8333,84.5 73.5,84.5C 73.5,83.8333 73.1667,83.5 72.5,83.5C 72.9321,82.2905 73.5987,81.2905 74.5,80.5 Z"/></g>
<g><path style="opacity:0.005" fill="#3399ff" d="M 150.5,79.5 C 153.572,79.1826 156.572,79.5159 159.5,80.5C 158,80.8333 156.5,81.1667 155,81.5C 153.014,81.4313 151.514,80.7647 150.5,79.5 Z"/></g>
<g><path style="opacity:0.007" fill="#3399ff" d="M 51.5,84.5 C 49.5589,83.3622 49.3922,81.6955 51,79.5C 51.4935,81.1341 51.6602,82.8008 51.5,84.5 Z"/></g>
<g><path style="opacity:0.007" fill="#3399ff" d="M 64.5,81.5 C 65.4013,82.2905 66.0679,83.2905 66.5,84.5C 65.8333,84.5 65.5,84.8333 65.5,85.5C 65.1667,85.5 64.8333,85.5 64.5,85.5C 63.8333,85.5 63.5,85.1667 63.5,84.5C 63.5,83.8333 63.5,83.1667 63.5,82.5C 64.1667,82.5 64.5,82.1667 64.5,81.5 Z"/></g>
<g><path style="opacity:0.006" fill="#3399ff" d="M 87.5,81.5 C 88.1239,81.9169 88.4573,82.5836 88.5,83.5C 88.2528,84.7133 87.5862,85.38 86.5,85.5C 86.5,84.8333 86.5,84.1667 86.5,83.5C 87.3382,83.1583 87.6716,82.4916 87.5,81.5 Z"/></g>
<g><path style="opacity:0.763" fill="#3399ff" d="M 150.5,82.5 C 153.5,82.5 156.5,82.5 159.5,82.5C 159.501,119.81 160.168,119.81 161.5,82.5C 162.498,91.1411 162.831,99.8078 162.5,108.5C 179.821,108.668 179.821,109.168 162.5,110C 166.821,110.499 171.154,110.666 175.5,110.5C 175.5,113.5 175.5,116.5 175.5,119.5C 167.167,119.5 158.833,119.5 150.5,119.5C 150.5,107.167 150.5,94.8333 150.5,82.5 Z"/></g>
<g><path style="opacity:0.007" fill="#3399ff" d="M 72.5,83.5 C 73.1667,83.5 73.5,83.8333 73.5,84.5C 73.5,85.1667 73.5,85.8333 73.5,86.5C 73.1667,86.5 72.8333,86.5 72.5,86.5C 71.8333,86.5 71.5,86.1667 71.5,85.5C 71.3284,84.5084 71.6618,83.8417 72.5,83.5 Z"/></g>
<g><path style="opacity:0.007" fill="#3399ff" d="M 66.5,84.5 C 67.3382,84.8417 67.6716,85.5084 67.5,86.5C 66.8333,86.5 66.5,86.8333 66.5,87.5C 66.1667,87.5 65.8333,87.5 65.5,87.5C 65.5,86.8333 65.5,86.1667 65.5,85.5C 66.1667,85.5 66.5,85.1667 66.5,84.5 Z"/></g>
<g><path style="opacity:0.012" fill="#3399ff" d="M 190.5,84.5 C 190.842,83.6618 191.508,83.3284 192.5,83.5C 192.5,84.1667 192.833,84.5 193.5,84.5C 193.5,84.8333 193.5,85.1667 193.5,85.5C 192.833,85.5 192.5,85.8333 192.5,86.5C 191.833,86.5 191.5,86.8333 191.5,87.5C 190.96,86.439 190.626,85.439 190.5,84.5 Z"/></g>
<g><path style="opacity:0.007" fill="#3399ff" d="M 85.5,85.5 C 85.8333,85.5 86.1667,85.5 86.5,85.5C 87.4427,87.0012 87.1094,88.3346 85.5,89.5C 85.5,88.8333 85.1667,88.5 84.5,88.5C 84.5,87.8333 84.5,87.1667 84.5,86.5C 85.1667,86.5 85.5,86.1667 85.5,85.5 Z"/></g>
<g><path style="opacity:0.008" fill="#3399ff" d="M 51.5,84.5 C 51.8333,84.5 52.1667,84.5 52.5,84.5C 53.1667,84.5 53.5,84.8333 53.5,85.5C 53.3284,86.4916 53.6618,87.1583 54.5,87.5C 54.5,88.1667 54.5,88.8333 54.5,89.5C 53.8333,89.5 53.5,89.8333 53.5,90.5C 51.5827,88.7196 50.9161,86.7196 51.5,84.5 Z"/></g>
<g><path style="opacity:0.008" fill="#3399ff" d="M 224.5,87.5 C 229.248,95.3209 229.582,103.321 225.5,111.5C 225.5,110.833 225.167,110.5 224.5,110.5C 224.5,109.833 224.5,109.167 224.5,108.5C 225.338,108.158 225.672,107.492 225.5,106.5C 226.833,102.5 226.833,98.5 225.5,94.5C 225.672,93.5084 225.338,92.8417 224.5,92.5C 224.672,91.5084 224.338,90.8417 223.5,90.5C 223.557,89.391 223.89,88.391 224.5,87.5 Z"/></g>
<g><path style="opacity:0.008" fill="#3399ff" d="M 83.5,88.5 C 83.8333,88.5 84.1667,88.5 84.5,88.5C 85.1667,88.5 85.5,88.8333 85.5,89.5C 85.6716,90.4916 85.3382,91.1583 84.5,91.5C 83.8333,91.5 83.5,91.1667 83.5,90.5C 83.5,89.8333 83.5,89.1667 83.5,88.5 Z"/></g>
<g><path style="opacity:0.007" fill="#3399ff" d="M 96.5,88.5 C 97.1098,89.391 97.4431,90.391 97.5,91.5C 96.6618,91.8417 96.3284,92.5084 96.5,93.5C 95.5655,94.5676 95.2322,95.901 95.5,97.5C 94.1667,99.5 94.1667,101.5 95.5,103.5C 95.2322,105.099 95.5655,106.432 96.5,107.5C 96.3284,108.492 96.6618,109.158 97.5,109.5C 97.4431,110.609 97.1098,111.609 96.5,112.5C 94.2741,108.931 93.2741,104.931 93.5,100.5C 93.2741,96.0692 94.2741,92.0692 96.5,88.5 Z"/></g>
<g><path style="opacity:0.007" fill="#3399ff" d="M 187.5,88.5 C 188.11,89.391 188.443,90.391 188.5,91.5C 187.662,91.8417 187.328,92.5084 187.5,93.5C 185.713,96.4089 185.379,99.4089 186.5,102.5C 186.216,104.415 186.549,106.081 187.5,107.5C 187.328,108.492 187.662,109.158 188.5,109.5C 189.167,109.5 189.5,109.833 189.5,110.5C 189.631,111.239 189.464,111.906 189,112.5C 188.31,111.262 187.81,111.262 187.5,112.5C 185.311,108.908 184.311,104.908 184.5,100.5C 184.274,96.0692 185.274,92.0692 187.5,88.5 Z"/></g>
<g><path style="opacity:0.007" fill="#3399ff" d="M 54.5,89.5 C 54.8333,89.5 55.1667,89.5 55.5,89.5C 55.5,90.1667 55.5,90.8333 55.5,91.5C 54.8333,91.5 54.5,91.8333 54.5,92.5C 53.6618,92.1583 53.3284,91.4916 53.5,90.5C 54.1667,90.5 54.5,90.1667 54.5,89.5 Z"/></g>
<g><path style="opacity:0.007" fill="#3399ff" d="M 55.5,91.5 C 55.8333,91.5 56.1667,91.5 56.5,91.5C 57.1667,91.5 57.5,91.8333 57.5,92.5C 57.3284,93.4916 57.6618,94.1583 58.5,94.5C 58.5,95.1667 58.5,95.8333 58.5,96.5C 57.8333,96.5 57.5,96.8333 57.5,97.5C 56.2632,96.0351 55.2632,94.3684 54.5,92.5C 55.1667,92.5 55.5,92.1667 55.5,91.5 Z"/></g>
<g><path style="opacity:0.009" fill="#3399ff" d="M 107.5,94.5 C 107.833,94.5 108.167,94.5 108.5,94.5C 108.5,95.1667 108.833,95.5 109.5,95.5C 108.841,97.1379 108.174,98.8045 107.5,100.5C 108.174,102.195 108.841,103.862 109.5,105.5C 108.833,105.5 108.5,105.833 108.5,106.5C 108.167,106.5 107.833,106.5 107.5,106.5C 107.672,105.508 107.338,104.842 106.5,104.5C 106.5,101.833 106.5,99.1667 106.5,96.5C 107.338,96.1583 107.672,95.4916 107.5,94.5 Z"/></g>
<g><path style="opacity:0.01" fill="#3399ff" d="M 198.5,94.5 C 198.833,94.5 199.167,94.5 199.5,94.5C 199.5,95.1667 199.833,95.5 200.5,95.5C 199.841,97.1379 199.174,98.8045 198.5,100.5C 199.456,102.075 200.123,103.742 200.5,105.5C 199.833,105.5 199.5,105.833 199.5,106.5C 199.167,106.5 198.833,106.5 198.5,106.5C 198.672,105.508 198.338,104.842 197.5,104.5C 197.5,101.833 197.5,99.1667 197.5,96.5C 198.338,96.1583 198.672,95.4916 198.5,94.5 Z"/></g>
<g><path style="opacity:0.009" fill="#3399ff" d="M 214.5,94.5 C 214.263,95.791 214.596,96.791 215.5,97.5C 215.5,99.5 215.5,101.5 215.5,103.5C 214.596,104.209 214.263,105.209 214.5,106.5C 213.833,106.5 213.5,106.833 213.5,107.5C 213.167,107.5 212.833,107.5 212.5,107.5C 212.5,106.833 212.167,106.5 211.5,106.5C 213.682,103.052 214.016,99.3854 212.5,95.5C 213.167,95.1667 213.833,94.8333 214.5,94.5 Z"/></g>
<g><path style="opacity:0.008" fill="#3399ff" d="M 79.5,95.5 C 79.8333,95.5 80.1667,95.5 80.5,95.5C 81.1667,95.5 81.5,95.8333 81.5,96.5C 81.6716,97.4916 81.3382,98.1583 80.5,98.5C 79.8333,98.5 79.5,98.1667 79.5,97.5C 79.5,96.8333 79.5,96.1667 79.5,95.5 Z"/></g>
<g><path style="opacity:0.007" fill="#3399ff" d="M 58.5,96.5 C 58.8333,96.5 59.1667,96.5 59.5,96.5C 59.5,97.1667 59.5,97.8333 59.5,98.5C 58.8333,98.5 58.5,98.8333 58.5,99.5C 57.6618,99.1583 57.3284,98.4916 57.5,97.5C 58.1667,97.5 58.5,97.1667 58.5,96.5 Z"/></g>
<g><path style="opacity:0.008" fill="#3399ff" d="M 59.5,98.5 C 59.8333,98.5 60.1667,98.5 60.5,98.5C 61.1667,98.5 61.5,98.8333 61.5,99.5C 61.3284,100.492 61.6618,101.158 62.5,101.5C 62.5,102.167 62.5,102.833 62.5,103.5C 61.8333,103.5 61.5,103.833 61.5,104.5C 60.2632,103.035 59.2632,101.368 58.5,99.5C 59.1667,99.5 59.5,99.1667 59.5,98.5 Z"/></g>
<g><path style="opacity:0.006" fill="#3399ff" d="M 75.5,102.5 C 75.8333,102.5 76.1667,102.5 76.5,102.5C 77.1667,102.5 77.5,102.833 77.5,103.5C 75.9766,123.742 74.9766,124.075 74.5,104.5C 75.3382,104.158 75.6716,103.492 75.5,102.5 Z"/></g>
<g><path style="opacity:0.013" fill="#3399ff" d="M 62.5,103.5 C 62.8333,103.5 63.1667,103.5 63.5,103.5C 63.666,108.844 63.4994,114.177 63,119.5C 62.7276,114.451 62.2276,109.451 61.5,104.5C 62.1667,104.5 62.5,104.167 62.5,103.5 Z"/></g>
<g><path style="opacity:0.007" fill="#3399ff" d="M 223.5,110.5 C 223.833,110.5 224.167,110.5 224.5,110.5C 225.167,110.5 225.5,110.833 225.5,111.5C 225.672,112.492 225.338,113.158 224.5,113.5C 224.19,112.262 223.69,112.262 223,113.5C 222.536,112.906 222.369,112.239 222.5,111.5C 223.167,111.5 223.5,111.167 223.5,110.5 Z"/></g>
<g><path style="opacity:0.004" fill="#3399ff" d="M 98.5,114.5 C 99.5,114.833 100.167,115.5 100.5,116.5C 99.1667,116.5 98.5,115.833 98.5,114.5 Z"/></g>
<g><path style="opacity:0.004" fill="#3399ff" d="M 246.5,156.5 C 247.833,157.167 247.833,157.167 246.5,156.5 Z"/></g>
<g><path style="opacity:0.004" fill="#3399ff" d="M 246.5,157.5 C 246.672,158.492 246.338,159.158 245.5,159.5C 245.328,158.508 245.662,157.842 246.5,157.5 Z"/></g>
<g><path style="opacity:0.004" fill="#3399ff" d="M 244.5,159.5 C 244.833,159.5 245.167,159.5 245.5,159.5C 245.315,160.17 244.981,160.17 244.5,159.5 Z"/></g>
<g><path style="opacity:0.004" fill="#3399ff" d="M 243.5,160.5 C 243.833,160.5 244.167,160.5 244.5,160.5C 244.315,161.17 243.981,161.17 243.5,160.5 Z"/></g>
<g><path style="opacity:0.004" fill="#3399ff" d="M 243.5,161.5 C 242.833,162.167 242.833,162.167 243.5,161.5 Z"/></g>
<g><path style="opacity:0.004" fill="#3399ff" d="M 240.5,164.5 C 240.833,164.5 241.167,164.5 241.5,164.5C 241.315,165.17 240.981,165.17 240.5,164.5 Z"/></g>
<g><path style="opacity:0.004" fill="#3399ff" d="M 239.5,165.5 C 239.833,165.5 240.167,165.5 240.5,165.5C 240.315,166.17 239.981,166.17 239.5,165.5 Z"/></g>
<g><path style="opacity:0.008" fill="#3399ff" d="M 236.5,166.5 C 237.167,166.833 237.833,167.167 238.5,167.5C 238.672,168.492 238.338,169.158 237.5,169.5C 237.167,168.167 236.833,168.167 236.5,169.5C 235.662,169.158 235.328,168.492 235.5,167.5C 236.167,167.5 236.5,167.167 236.5,166.5 Z"/></g>
<g><path style="opacity:0.004" fill="#3399ff" d="M 239.5,166.5 C 238.833,167.167 238.833,167.167 239.5,166.5 Z"/></g>
<g><path style="opacity:0.004" fill="#3399ff" d="M 236.5,169.5 C 236.833,169.5 237.167,169.5 237.5,169.5C 237.315,170.17 236.981,170.17 236.5,169.5 Z"/></g>
<g><path style="opacity:0.004" fill="#3399ff" d="M 236.5,170.5 C 235.833,171.167 235.833,171.167 236.5,170.5 Z"/></g>
<g><path style="opacity:0.006" fill="#3399ff" d="M 232.5,171.5 C 233.5,172.833 234.5,172.833 235.5,171.5C 235.573,173.027 234.906,174.027 233.5,174.5C 233.167,173.167 232.833,173.167 232.5,174.5C 231.662,174.158 231.328,173.492 231.5,172.5C 232.167,172.5 232.5,172.167 232.5,171.5 Z"/></g>
<g><path style="opacity:0.004" fill="#3399ff" d="M 232.5,174.5 C 232.833,174.5 233.167,174.5 233.5,174.5C 233.315,175.17 232.981,175.17 232.5,174.5 Z"/></g>
<g><path style="opacity:0.004" fill="#3399ff" d="M 232.5,175.5 C 231.833,176.167 231.833,176.167 232.5,175.5 Z"/></g>
<g><path style="opacity:0.004" fill="#3399ff" d="M 229.5,178.5 C 229.833,178.5 230.167,178.5 230.5,178.5C 230.315,179.17 229.981,179.17 229.5,178.5 Z"/></g>
<g><path style="opacity:0.004" fill="#3399ff" d="M 228.5,179.5 C 228.833,179.5 229.167,179.5 229.5,179.5C 229.315,180.17 228.981,180.17 228.5,179.5 Z"/></g>
<g><path style="opacity:0.009" fill="#3399ff" d="M 225.5,180.5 C 226.167,180.833 226.833,181.167 227.5,181.5C 227.672,182.492 227.338,183.158 226.5,183.5C 226.167,182.167 225.833,182.167 225.5,183.5C 224.662,183.158 224.328,182.492 224.5,181.5C 225.167,181.5 225.5,181.167 225.5,180.5 Z"/></g>
<g><path style="opacity:0.004" fill="#3399ff" d="M 228.5,180.5 C 227.833,181.167 227.833,181.167 228.5,180.5 Z"/></g>
<g><path style="opacity:0.004" fill="#3399ff" d="M 225.5,183.5 C 225.833,183.5 226.167,183.5 226.5,183.5C 226.315,184.17 225.981,184.17 225.5,183.5 Z"/></g>
<g><path style="opacity:0.004" fill="#3399ff" d="M 225.5,184.5 C 224.833,185.167 224.833,185.167 225.5,184.5 Z"/></g>
<g><path style="opacity:0.004" fill="#3399ff" d="M 224.5,185.5 C 223.833,186.167 223.833,186.167 224.5,185.5 Z"/></g>
<g><path style="opacity:0.004" fill="#3399ff" d="M 8.5,187.5 C 7.83333,186.167 7.83333,186.167 8.5,187.5 Z"/></g>
<g><path style="opacity:0.004" fill="#3399ff" d="M 222.5,186.5 C 222.833,186.5 223.167,186.5 223.5,186.5C 223.315,187.17 222.981,187.17 222.5,186.5 Z"/></g>
<g><path style="opacity:0.004" fill="#3399ff" d="M 8.5,187.5 C 8.83333,187.5 9.16667,187.5 9.5,187.5C 9.31468,188.17 8.98135,188.17 8.5,187.5 Z"/></g>
<g><path style="opacity:0.004" fill="#3399ff" d="M 143.5,189.5 C 143.833,189.5 144.167,189.5 144.5,189.5C 144.315,190.17 143.981,190.17 143.5,189.5 Z"/></g>
<g><path style="opacity:0.004" fill="#3399ff" d="M 140.5,191.5 C 140.833,191.5 141.167,191.5 141.5,191.5C 141.315,192.17 140.981,192.17 140.5,191.5 Z"/></g>
<g><path style="opacity:0.004" fill="#3399ff" d="M 137.5,193.5 C 137.833,193.5 138.167,193.5 138.5,193.5C 138.315,194.17 137.981,194.17 137.5,193.5 Z"/></g>
<g><path style="opacity:0.004" fill="#3399ff" d="M 135.5,194.5 C 136.833,195.167 136.833,195.167 135.5,194.5 Z"/></g>
<g><path style="opacity:0.004" fill="#3399ff" d="M 132.5,196.5 C 132.833,196.5 133.167,196.5 133.5,196.5C 133.315,197.17 132.981,197.17 132.5,196.5 Z"/></g>
<g><path style="opacity:0.004" fill="#3399ff" d="M 129.5,198.5 C 129.833,198.5 130.167,198.5 130.5,198.5C 130.315,199.17 129.981,199.17 129.5,198.5 Z"/></g>
<g><path style="opacity:0.004" fill="#3399ff" d="M 126.5,200.5 C 126.833,200.5 127.167,200.5 127.5,200.5C 127.315,201.17 126.981,201.17 126.5,200.5 Z"/></g>
<g><path style="opacity:0.004" fill="#3399ff" d="M 123.5,202.5 C 123.833,202.5 124.167,202.5 124.5,202.5C 124.315,203.17 123.981,203.17 123.5,202.5 Z"/></g>
<g><path style="opacity:0.004" fill="#3399ff" d="M 121.5,203.5 C 122.833,204.167 122.833,204.167 121.5,203.5 Z"/></g>
<g><path style="opacity:0.004" fill="#3399ff" d="M 118.5,205.5 C 118.833,205.5 119.167,205.5 119.5,205.5C 119.315,206.17 118.981,206.17 118.5,205.5 Z"/></g>
<g><path style="opacity:0.004" fill="#3399ff" d="M 115.5,207.5 C 115.833,207.5 116.167,207.5 116.5,207.5C 116.315,208.17 115.981,208.17 115.5,207.5 Z"/></g>
<g><path style="opacity:0.004" fill="#3399ff" d="M 112.5,209.5 C 112.833,209.5 113.167,209.5 113.5,209.5C 113.315,210.17 112.981,210.17 112.5,209.5 Z"/></g>
<g><path style="opacity:0.004" fill="#3399ff" d="M 109.5,211.5 C 109.833,211.5 110.167,211.5 110.5,211.5C 110.315,212.17 109.981,212.17 109.5,211.5 Z"/></g>
<g><path style="opacity:0.004" fill="#3399ff" d="M 104.5,214.5 C 104.833,214.5 105.167,214.5 105.5,214.5C 105.315,215.17 104.981,215.17 104.5,214.5 Z"/></g>
<g><path style="opacity:0.004" fill="#3399ff" d="M 96.5,215.5 C 97.8333,216.167 97.8333,216.167 96.5,215.5 Z"/></g>
</svg>
